<svg xmlns="http://www.w3.org/2000/svg" xmlns:xlink="http://www.w3.org/1999/xlink" fill="none" version="1.1" width="25.5" height="26.75" viewBox="0 0 25.5 26.75"><defs><filter id="master_svg0_0_3" filterUnits="objectBoundingBox" color-interpolation-filters="sRGB" x="-8" y="-4" width="40" height="40"><feFlood flood-opacity="0" result="BackgroundImageFix"/><feColorMatrix in="SourceAlpha" type="matrix" values="0 0 0 0 0 0 0 0 0 0 0 0 0 0 0 0 0 0 127 0"/><feOffset dy="4" dx="0"/><feGaussianBlur stdDeviation="2"/><feColorMatrix type="matrix" values="0 0 0 0 0 0 0 0 0 0 0 0 0 0 0 0 0 0 0.25 0"/><feBlend mode="normal" in2="BackgroundImageFix" result="effect1_dropShadow"/><feBlend mode="normal" in="SourceGraphic" in2="effect1_dropShadow" result="shape"/></filter></defs><g filter="url(#master_svg0_0_3)"><g transform="matrix(1,-1.8375892746737375e-15,1.8375892746737375e-15,1,-2.930988785010413e-14,1.2434497875801753e-14)"><path d="M6.75,16.75L18.75,16.75Q18.823900000000002,16.75,18.8963,16.735589Q18.9688,16.721178,19.037,16.69291Q19.1053,16.664641,19.1667,16.623601999999998Q19.228099999999998,16.582563,19.2803,16.53033Q19.3326,16.478096999999998,19.3736,16.416678Q19.4146,16.355258,19.4429,16.287013Q19.4712,16.218767,19.485599999999998,16.146318Q19.5,16.0738685,19.5,16Q19.5,15.9261315,19.485599999999998,15.853682Q19.4712,15.781233,19.4429,15.712987Q19.4146,15.644742,19.3736,15.583322Q19.3326,15.521903,19.2803,15.46967Q19.228099999999998,15.417437,19.1667,15.376398Q19.1053,15.335359,19.037,15.30709Q18.9688,15.278822,18.8963,15.264410999999999Q18.823900000000002,15.25,18.75,15.25L6.75,15.25Q6.6761315,15.25,6.603682,15.264410999999999Q6.531233,15.278822,6.462987,15.30709Q6.394742,15.335359,6.333322,15.376398Q6.271903,15.417437,6.21967,15.46967Q6.167437,15.521903,6.126398,15.583322Q6.085359,15.644742,6.05709,15.712987Q6.028822,15.781233,6.014411,15.853682Q6,15.9261315,6,16Q6,16.0738685,6.014411,16.146318Q6.028822,16.218767,6.05709,16.287013Q6.085359,16.355258,6.126398,16.416678Q6.167437,16.478096999999998,6.21967,16.53033Q6.271903,16.582563,6.333322,16.623601999999998Q6.394742,16.664641,6.462987,16.69291Q6.531233,16.721178,6.603682,16.735589Q6.6761315,16.75,6.75,16.75Z" fill-rule="evenodd" fill="#404040" fill-opacity="1"/></g><g transform="matrix(1,-1.8375892746737375e-15,1.8375892746737375e-15,1,-2.220446049250313e-14,1.2434497875801753e-14)"><path d="M6.75,12.75L18.75,12.75Q18.823900000000002,12.75,18.8963,12.735589000000001Q18.9688,12.721178,19.037,12.69291Q19.1053,12.664641,19.1667,12.623602Q19.228099999999998,12.582563,19.2803,12.53033Q19.3326,12.478097,19.3736,12.416678Q19.4146,12.355258,19.4429,12.287013Q19.4712,12.218767,19.485599999999998,12.146318Q19.5,12.0738685,19.5,12Q19.5,11.9261315,19.485599999999998,11.853682Q19.4712,11.781233,19.4429,11.712987Q19.4146,11.644742,19.3736,11.583322Q19.3326,11.521903,19.2803,11.46967Q19.228099999999998,11.417437,19.1667,11.376398Q19.1053,11.335359,19.037,11.30709Q18.9688,11.278822,18.8963,11.264410999999999Q18.823900000000002,11.25,18.75,11.25L6.75,11.25Q6.6761315,11.25,6.603682,11.264410999999999Q6.531233,11.278822,6.462987,11.30709Q6.394742,11.335359,6.333322,11.376398Q6.271903,11.417437,6.21967,11.46967Q6.167437,11.521903,6.126398,11.583322Q6.085359,11.644742,6.05709,11.712987Q6.028822,11.781233,6.014411,11.853682Q6,11.9261315,6,12Q6,12.0738685,6.014411,12.146318Q6.028822,12.218767,6.05709,12.287013Q6.085359,12.355258,6.126398,12.416678Q6.167437,12.478097,6.21967,12.53033Q6.271903,12.582563,6.333322,12.623602Q6.394742,12.664641,6.462987,12.69291Q6.531233,12.721178,6.603682,12.735589000000001Q6.6761315,12.75,6.75,12.75Z" fill-rule="evenodd" fill="#404040" fill-opacity="1"/></g><g transform="matrix(1,-1.8375892746737375e-15,1.8375892746737375e-15,1,-1.509903313490213e-14,1.2434497875801753e-14)"><path d="M6.75,8.75L18.75,8.75Q18.823900000000002,8.75,18.8963,8.735589000000001Q18.9688,8.721178,19.037,8.69291Q19.1053,8.664641,19.1667,8.623602Q19.228099999999998,8.582563,19.2803,8.53033Q19.3326,8.478097,19.3736,8.416678Q19.4146,8.355258,19.4429,8.287013Q19.4712,8.218767,19.485599999999998,8.146318Q19.5,8.0738685,19.5,8Q19.5,7.9261315,19.485599999999998,7.853682Q19.4712,7.781233,19.4429,7.712987Q19.4146,7.644742,19.3736,7.583322Q19.3326,7.521903,19.2803,7.46967Q19.228099999999998,7.417437,19.1667,7.376398Q19.1053,7.335359,19.037,7.30709Q18.9688,7.278822,18.8963,7.264411Q18.823900000000002,7.25,18.75,7.25L6.75,7.25Q6.6761315,7.25,6.603682,7.264411Q6.531233,7.278822,6.462987,7.30709Q6.394742,7.335359,6.333322,7.376398Q6.271903,7.417437,6.21967,7.46967Q6.167437,7.521903,6.126398,7.583322Q6.085359,7.644742,6.05709,7.712987Q6.028822,7.781233,6.014411,7.853682Q6,7.9261315,6,8Q6,8.0738685,6.014411,8.146318Q6.028822,8.218767,6.05709,8.287013Q6.085359,8.355258,6.126398,8.416678Q6.167437,8.478097,6.21967,8.53033Q6.271903,8.582563,6.333322,8.623602Q6.394742,8.664641,6.462987,8.69291Q6.531233,8.721178,6.603682,8.735589000000001Q6.6761315,8.75,6.75,8.75Z" fill-rule="evenodd" fill="#404040" fill-opacity="1"/></g></g></svg>